<svg xmlns="http://www.w3.org/2000/svg" viewBox="0 0 48 48" fill="none" role="img" aria-label="Bible Together">
  <style>
    .book { fill: #1A8917; }
    .shine { fill: #fff; opacity: 0.15; }
    .dot { fill: #fff; }
    @media (prefers-color-scheme: dark) {
      .book { fill: #53c24e; }
      .dot { fill: #101113; }
    }
  </style>
  <path class="book" d="M24 41V14.5C24 14.5 9 18 7 28.5C6 34.5 10 39.5 24 41Z"/>
  <path class="book" d="M24 41V14.5C24 14.5 39 18 41 28.5C42 34.5 38 39.5 24 41Z"/>
  <path class="shine" d="M24 16.5V39L12.5 35C10.5 32.5 10 29.5 11 27L24 16.5Z"/>
  <path class="shine" d="M24 16.5V39L35.5 35C37.5 32.5 38 29.5 37 27L24 16.5Z"/>
  <circle class="dot" cx="14.5" cy="10" r="3.25"/>
  <circle class="dot" cx="33.5" cy="10" r="3.25"/>
</svg>
